<?xml version="1.0" encoding="utf-8"?>
<!-- Generator: Adobe Illustrator 27.0.0, SVG Export Plug-In . SVG Version: 6.00 Build 0)  -->
<svg version="1.1" id="Layer_2" xmlns="http://www.w3.org/2000/svg" xmlns:xlink="http://www.w3.org/1999/xlink" x="0px" y="0px"
	 viewBox="0 0 841.9 404.2" style="enable-background:new 0 0 841.9 404.2;" xml:space="preserve">
<style type="text/css">
	.st0{fill:#FFFFFF;}
</style>
<g>
	<g>
		<rect x="280.9" y="146.9" class="st0" width="8.6" height="162.1"/>
	</g>
	<g>
		<g>
			<g>
				<path class="st0" d="M355.5,262.3V261c0-3.1-0.8-5.5-2.4-7.2c-1.6-1.6-3.8-2.4-6.8-2.4c-3,0-5.2,0.8-6.9,2.4
					c-1.6,1.6-2.4,3.9-2.4,7.1v28c0,3.2,0.8,5.5,2.4,7.1c1.6,1.6,3.9,2.4,6.9,2.4c3,0,5.2-0.8,6.8-2.4c1.6-1.6,2.4-4,2.4-7.2v-1.3
					h10.3v1.3c0,3.8-0.8,7.2-2.4,10.1c-1.6,2.9-3.9,5.2-6.8,6.7c-2.9,1.5-6.4,2.3-10.3,2.3c-3.9,0-7.4-0.8-10.3-2.3
					c-3-1.5-5.3-3.8-6.9-6.7c-1.6-2.9-2.4-6.3-2.4-10.2v-28c0-3.9,0.8-7.4,2.4-10.2c1.6-2.9,3.9-5.1,6.9-6.6
					c2.9-1.5,6.4-2.3,10.3-2.3c3.9,0,7.4,0.8,10.3,2.3c2.9,1.6,5.2,3.8,6.8,6.7c1.6,2.8,2.4,6.3,2.4,10.1v1.3H355.5z"/>
			</g>
			<g>
				<polygon class="st0" points="414.7,297.6 414.7,307.2 376.4,307.2 376.4,242.7 386.7,242.7 386.7,297.6 				"/>
			</g>
			<g>
				<path class="st0" d="M460.8,242.7V289c0,5.9-1.6,10.6-4.9,14c-3.3,3.4-8.1,5.2-14.2,5.2c-6.1,0-10.9-1.7-14.2-5.2
					c-3.3-3.4-4.9-8.1-4.9-13.9v-46.2h10.3V289c0,3,0.7,5.5,2.2,7.2c1.4,1.7,3.6,2.5,6.6,2.5c3,0,5.2-0.8,6.6-2.5
					c1.5-1.7,2.2-4.1,2.2-7.2v-46.2H460.8z"/>
			</g>
			<g>
				<path class="st0" d="M508,275.9c-1.1-1.1-2.3-2-3.7-2.7c1-0.6,1.9-1.2,2.7-2c2.9-2.7,4.4-6.5,4.4-11.1c0-3.6-0.8-6.7-2.3-9.3
					c-1.6-2.6-3.8-4.6-6.8-6c-2.8-1.3-6.3-2-10.3-2h-18.9v64.5h20.1c4,0,7.5-0.7,10.4-2.2c2.9-1.5,5.2-3.7,6.8-6.5
					c1.6-2.8,2.4-6.1,2.4-9.8C512.8,283.4,511.2,279.1,508,275.9z M492.4,297.7h-9.2v-19.4h9.2c3.2,0,5.7,0.9,7.5,2.8
					c1.8,1.9,2.7,4.3,2.7,7.3c0,2.9-0.9,5.1-2.7,6.8C498.1,296.9,495.7,297.7,492.4,297.7z M483.2,252.2h8.8c2.9,0,5.2,0.8,6.8,2.3
					c1.6,1.5,2.4,3.5,2.4,6.1c0,2.6-0.8,4.6-2.4,6.1c-1.6,1.5-3.9,2.3-6.8,2.3h-8.7V252.2z"/>
			</g>
		</g>
		<g>
			<path class="st0" d="M362.7,155.8c-1.7-3-4.2-5.3-7.3-6.9c-3.1-1.6-6.8-2.4-11-2.4H327v64.5h17.3c4.2,0,7.9-0.8,11-2.4
				c3.1-1.6,5.6-4,7.3-7c1.7-3,2.6-6.5,2.6-10.5v-24.7C365.3,162.3,364.4,158.7,362.7,155.8z M344.4,201.5h-7.1v-45.6h7.1
				c3.4,0,6,0.9,7.8,2.7c1.9,1.9,2.8,4.4,2.8,7.7v24.7c0,3.4-0.9,5.9-2.8,7.8C350.3,200.6,347.8,201.5,344.4,201.5z"/>
		</g>
		<g>
			<polygon class="st0" points="484.8,156 484.8,172.5 509.8,172.5 509.8,181.9 484.8,181.9 484.8,201.3 512.8,201.3 512.8,210.9 
				474.6,210.9 474.6,146.4 512.8,146.4 512.8,156 			"/>
		</g>
		<g>
			<path class="st0" d="M606.5,154.5c-1.6-2.9-3.8-5.1-6.7-6.6c-2.9-1.5-6.3-2.3-10.2-2.3c-3.9,0-7.4,0.8-10.2,2.3
				c-2.9,1.5-5.2,3.8-6.7,6.6c-1.5,2.8-2.3,6.3-2.3,10.2v28c0,3.9,0.8,7.3,2.3,10.2c1.6,2.9,3.8,5.2,6.7,6.7
				c2.9,1.5,6.3,2.3,10.2,2.3c3.9,0,7.4-0.8,10.2-2.3c2.9-1.5,5.2-3.8,6.7-6.7c1.5-2.9,2.3-6.3,2.3-10.2v-28
				C608.8,160.7,608,157.3,606.5,154.5z M589.5,202.2c-2.9,0-5.1-0.8-6.7-2.4c-1.5-1.6-2.3-4-2.3-7.2v-28c0-3.1,0.8-5.5,2.3-7.2
				c1.6-1.6,3.7-2.4,6.7-2.4c3,0,5.2,0.8,6.7,2.4c1.5,1.6,2.3,4,2.3,7.2v28c0,3.1-0.8,5.6-2.3,7.2
				C594.7,201.4,592.5,202.2,589.5,202.2z"/>
		</g>
		<g>
			<path class="st0" d="M658.6,155.6c-1.7-2.9-4.1-5.2-7.1-6.8c-3-1.6-6.6-2.4-10.6-2.4h-21.2v64.5h10.3v-25.4h11
				c4,0,7.6-0.8,10.6-2.4c3-1.6,5.4-3.9,7.1-6.9c1.7-2.9,2.5-6.4,2.5-10.3C661.1,162,660.3,158.5,658.6,155.6z M640.9,176h-11v-20
				h11c3,0,5.3,0.9,7.1,2.7c1.8,1.8,2.6,4.2,2.6,7.4c0,3.1-0.9,5.5-2.6,7.3C646.2,175.1,643.9,176,640.9,176z"/>
		</g>
		<g>
			<polygon class="st0" points="678.5,156 678.5,172.5 703.6,172.5 703.6,181.9 678.5,181.9 678.5,201.3 706.6,201.3 706.6,210.9 
				668.3,210.9 668.3,146.4 706.6,146.4 706.6,156 			"/>
		</g>
		<g>
			<path class="st0" d="M808.1,193.3c0,3.7-0.9,6.9-2.5,9.7c-1.7,2.8-4.1,5-7.2,6.5c-3,1.5-6.6,2.3-10.6,2.3c-4.1,0-7.8-0.8-11-2.3
				c-3.2-1.5-5.7-3.7-7.4-6.5c-1.7-2.8-2.6-6.1-2.6-9.7V192h10.3v1.3c0,2.7,0.9,4.8,2.8,6.5c1.9,1.7,4.6,2.5,7.9,2.5
				c3.2,0,5.6-0.8,7.5-2.5c1.8-1.6,2.7-3.8,2.7-6.5c0-2.2-0.5-4-1.7-5.6c-1.1-1.6-2.6-2.7-4.5-3.3l-9.2-2.9
				c-4.4-1.4-7.9-3.7-10.4-6.9c-2.5-3.2-3.8-7-3.8-11.2c0-5.4,1.8-9.8,5.4-13c3.5-3.2,8.3-4.8,14.1-4.8c5.8,0,10.5,1.6,14,4.8
				c3.6,3.2,5.3,7.6,5.3,13v1.3h-10.3v-1.3c0-2.6-0.8-4.6-2.4-6.1c-1.7-1.5-3.8-2.3-6.7-2.3c-2.9,0-5.2,0.7-6.9,2.3
				c-1.7,1.5-2.5,3.4-2.5,6c0,2,0.5,3.6,1.7,5c1.1,1.4,2.7,2.5,4.7,3.1l9.5,3.1c4.2,1.3,7.5,3.7,10,7.1
				C806.9,184.9,808.1,188.9,808.1,193.3z"/>
		</g>
		<polygon class="st0" points="385.1,156 385.1,172.5 410.1,172.5 410.1,181.9 385.1,181.9 385.1,201.3 413.1,201.3 413.1,210.9 
			374.8,210.9 374.8,146.4 413.1,146.4 413.1,156 		"/>
		<path class="st0" d="M466.9,146.4l-16.7,64.5h-6l-0.1,0.5l-0.1-0.5h-6.3L421,146.4h10.6l10.8,43.1c0.6,2.6,1.2,5,1.6,7.2
			c0.5-2.3,1.1-4.7,1.7-7.3l10.4-43H466.9z"/>
		<polygon class="st0" points="562.5,201.3 562.5,210.9 524.2,210.9 524.2,146.4 534.5,146.4 534.5,201.3 		"/>
		<path class="st0" d="M747.5,183c3.3-1.3,6-3.4,8.1-6.2c2.3-3.2,3.5-7.1,3.5-11.5c0-3.8-0.8-7.1-2.5-10c-1.6-2.9-4-5.1-7-6.7
			c-3-1.6-6.4-2.4-10.3-2.4h-20.5v64.5h10.3v-26.3h7.7l11.9,26.3h12L747.5,183z M729.2,155.6h10.2c2.8,0,5,0.8,6.7,2.6
			c1.7,1.7,2.5,4,2.5,7c0,2.9-0.8,5.2-2.5,7c-1.7,1.7-3.9,2.6-6.7,2.6h-10.2V155.6z"/>
	</g>
	<g>
		<g>
			<circle class="st0" cx="93.8" cy="221.1" r="5"/>
			<circle class="st0" cx="93.8" cy="249.8" r="5"/>
		</g>
		<circle class="st0" cx="94.1" cy="138.2" r="22.8"/>
		<circle class="st0" cx="185.7" cy="115.5" r="22.8"/>
		<path class="st0" d="M232.4,235.4l13.5-23.4c0.1-0.2,0.1-0.4,0-0.6L216,159.7c-0.1-0.2-0.3-0.3-0.5-0.3h-59.7
			c-0.2,0-0.4,0.1-0.5,0.3L133,198.2l-8.5-14.8c-0.1-0.2-0.3-0.3-0.5-0.3H64.2c-0.2,0-0.4,0.1-0.5,0.3l-29.9,51.7
			c-0.1,0.2-0.1,0.4,0,0.6l29.9,51.7c0.1,0.2,0.3,0.3,0.5,0.3H124c0.2,0,0.4-0.1,0.5-0.3l8.5-14.8l22.2,38.5
			c0.1,0.2,0.3,0.3,0.5,0.3h59.7c0.2,0,0.4-0.1,0.5-0.3l29.9-51.7c0.1-0.2,0.1-0.4,0-0.6L232.4,235.4z M163.3,298l-22.4-38.8
			l11.8-20.4c0-0.1,0.1-0.1,0.1-0.2l1.7-2.9c0.1-0.2,0.1-0.4,0-0.6l-1.7-2.9c0-0.1,0-0.1-0.1-0.2l-11.8-20.4l22.4-38.8h44.8
			l22.4,38.8l-5.7,9.9l-15.5-28.4c-0.1-0.2-0.3-0.3-0.5-0.3h-41.7c-0.2,0-0.4,0.1-0.5,0.3c-0.1,0.2-0.1,0.4,0,0.6l7,12.3
			c0.1,0.2,0.3,0.3,0.5,0.3H201l15.9,29l-15.9,29h-27.1c-0.2,0-0.4,0.1-0.5,0.3l-7,12.3c-0.1,0.2-0.1,0.4,0,0.6
			c0.1,0.2,0.3,0.3,0.5,0.3h41.7c0.2,0,0.4-0.1,0.5-0.3l15.5-28.4l5.7,9.9L208.1,298H163.3z M71.7,274.2l-22.4-38.8l22.4-38.8h44.8
			l22.4,38.8l-22.4,38.8H71.7z"/>
	</g>
</g>
</svg>
